<svg width="45" height="328" viewBox="0 0 45 328" fill="none" xmlns="http://www.w3.org/2000/svg">
<path d="M11.965 246.902C12.5503 245.73 14.7743 243.387 18.9883 243.387H22.5H26.0117C30.2257 243.387 32.4497 245.73 33.035 246.902V250.418V252.175H27.7675L31.2792 257.448V269.753C34.2056 270.924 40.0583 273.62 40.0583 275.026V282.057H34.7908C37.7172 286.158 43.57 295.064 43.57 297.876C43.57 301.392 48.8375 320.727 22.5 326C-3.8375 320.727 1.43 301.392 1.43 297.876C1.43 295.064 7.28278 286.158 10.2092 282.057H4.94167V275.026C4.94167 273.62 10.7944 270.924 13.7208 269.753V257.448L17.2325 252.175H11.965V250.418V246.902Z" fill="#11354E"/>
<path d="M10.2092 282.057H4.94167C4.94167 280.299 4.94167 276.432 4.94167 275.026C4.94167 273.62 10.7944 270.924 13.7208 269.753V257.448L17.2325 252.175H11.965V250.418V246.902C12.5503 245.73 14.7743 243.387 18.9883 243.387H22.5M10.2092 282.057C7.28278 286.158 1.43 295.064 1.43 297.876C1.43 301.392 -3.8375 320.727 22.5 326C48.8375 320.727 43.57 301.392 43.57 297.876C43.57 295.064 37.7172 286.158 34.7908 282.057M10.2092 282.057H34.7908M34.7908 282.057H40.0583C40.0583 280.299 40.0583 276.432 40.0583 275.026C40.0583 273.62 34.2056 270.924 31.2792 269.753V257.448L27.7675 252.175H33.035V250.418V246.902C32.4497 245.73 30.2257 243.387 26.0117 243.387H22.5M22.5 243.387V-15" stroke="#11354E" stroke-width="2"/>
</svg>
