<svg width="91" height="541" viewBox="0 0 91 541" fill="none" xmlns="http://www.w3.org/2000/svg">
<path d="M19.2045 176.955L5.04545 541H85.9545L71.7955 176.955V164.82L81.9091 154.708V132.461H77.8636V140.551H71.7955V106.169L90 102.124C87.303 98.7528 81.1 92.4157 77.8636 94.0337V77.8539H71.7955C76.5152 67.0674 79.8864 42.6629 55.6136 31.3371H49.5455V21.2247L45.5 1L41.4545 21.2247V31.3371H35.3864C11.1136 42.6629 14.4848 67.0674 19.2045 77.8539H13.1364V94.0337C9.9 92.4157 3.69697 98.7528 1 102.124L19.2045 106.169V140.551H13.1364V132.461H9.09091V154.708L19.2045 164.82V176.955Z" fill="#0F334F" stroke="#11354E"/>
</svg>
